<svg viewBox="0 0 32 32" fill="none" xmlns="http://www.w3.org/2000/svg">
<path d="M0 4.88889C0 3.59228 0.515078 2.34877 1.43192 1.43192C2.34877 0.515078 3.59228 0 4.88889 0H27.1111C28.4077 0 29.6512 0.515078 30.5681 1.43192C31.4849 2.34877 32 3.59228 32 4.88889V27.1111C32 28.4077 31.4849 29.6512 30.5681 30.5681C29.6512 31.4849 28.4077 32 27.1111 32H4.88889C3.59228 32 2.34877 31.4849 1.43192 30.5681C0.515078 29.6512 0 28.4077 0 27.1111V4.88889ZM17.3333 29.3333H27.1111C28.3378 29.3333 29.3333 28.3378 29.3333 27.1111V17.3333H17.3333V29.3333ZM14.6667 17.3333H2.66667V27.1111C2.66667 28.3378 3.66222 29.3333 4.88889 29.3333H14.6667V17.3333ZM17.3333 14.6667H29.3333V4.88889C29.3333 3.66222 28.3378 2.66667 27.1111 2.66667H17.3333V14.6667ZM14.6667 2.66667H4.88889C3.66222 2.66667 2.66667 3.66222 2.66667 4.88889V14.6667H14.6667V2.66667Z" />
</svg>
