<svg viewBox="0 0 28 32" fill="none" xmlns="http://www.w3.org/2000/svg">
<path d="M5.08527 24.2039C5.08527 25.0396 5.76928 25.7217 6.61085 25.7217H8.35489V30.0215C8.35489 31.1108 9.23228 32 10.3102 32C11.3917 32 12.2655 31.1143 12.2655 30.0215V25.7181H15.3095V30.0179C15.3095 31.1072 16.1869 31.9964 17.2649 31.9964C18.3464 31.9964 19.2202 31.1108 19.2202 30.0179V25.7181H20.9642C21.8058 25.7181 22.4898 25.036 22.4898 24.2003V10.0867H5.08527V24.2039V24.2039ZM17.8737 2.77273L19.4816 0.451404C19.5747 0.315696 19.5532 0.133561 19.4279 0.0442793C19.3025 -0.0414312 19.1235 0.00142426 19.0304 0.137133L17.3616 2.55131C16.2621 2.11919 15.0374 1.87991 13.7517 1.87991C12.4661 1.87991 11.2413 2.11919 10.1419 2.55131L8.47307 0.140704C8.37996 0.00499547 8.2009 -0.041431 8.07556 0.0478508C7.95021 0.133561 7.92873 0.312124 8.02184 0.454975L9.62979 2.7763C7.07283 3.96196 5.28224 6.20829 5.05304 8.83317H22.4576C22.2212 6.20472 20.427 3.95839 17.8737 2.77273V2.77273ZM10.0774 6.43328C9.8869 6.43328 9.70065 6.37694 9.54223 6.27138C9.38381 6.16582 9.26034 6.01578 9.18743 5.84024C9.11451 5.6647 9.09544 5.47154 9.13261 5.28519C9.16978 5.09884 9.26153 4.92766 9.39625 4.79331C9.53098 4.65896 9.70263 4.56746 9.8895 4.5304C10.0764 4.49333 10.2701 4.51235 10.4461 4.58506C10.6221 4.65778 10.7726 4.78091 10.8784 4.93889C10.9843 5.09687 11.0408 5.28261 11.0408 5.47261C11.0401 5.72719 10.9384 5.97116 10.7579 6.15118C10.5774 6.3312 10.3327 6.43262 10.0774 6.43328V6.43328ZM17.5406 6.43328C17.3501 6.43328 17.1638 6.37694 17.0054 6.27138C16.847 6.16582 16.7235 6.01578 16.6506 5.84024C16.5777 5.6647 16.5586 5.47154 16.5958 5.28519C16.633 5.09884 16.7247 4.92766 16.8594 4.79331C16.9942 4.65896 17.1658 4.56746 17.3527 4.5304C17.5395 4.49333 17.7332 4.51235 17.9093 4.58506C18.0853 4.65778 18.2357 4.78091 18.3416 4.93889C18.4474 5.09687 18.5039 5.28261 18.5039 5.47261C18.5033 5.72719 18.4016 5.97116 18.2211 6.15118C18.0405 6.3312 17.7959 6.43262 17.5406 6.43328ZM25.541 10.0295C24.4594 10.0295 23.5856 10.9152 23.5856 12.008V19.7363C23.5856 20.8255 24.463 21.7147 25.541 21.7147C26.6225 21.7147 27.4963 20.8291 27.4963 19.7363V12.0045C27.4999 10.9117 26.6261 10.0295 25.541 10.0295ZM1.95532 10.0295C0.873807 10.0295 0 10.9152 0 12.008V19.7363C0 20.8255 0.877388 21.7147 1.95532 21.7147C3.03684 21.7147 3.91065 20.8291 3.91065 19.7363V12.0045C3.91065 10.9117 3.03326 10.0295 1.95532 10.0295Z"/>
</svg>
