<svg viewBox="0 0 27 32" fill="none" xmlns="http://www.w3.org/2000/svg">
<path d="M22.476 16.9109C22.4607 14.2879 23.6491 12.3111 26.049 10.8534C24.7067 8.93042 22.676 7.87277 19.9992 7.66893C17.4647 7.46894 14.6917 9.1458 13.6764 9.1458C12.6034 9.1458 10.1496 7.73816 8.21891 7.73816C4.23445 7.7997 0 10.915 0 17.2532C0 19.1262 0.342294 21.0607 1.02688 23.053C1.94223 25.6759 5.2421 32.1026 8.68428 31.9988C10.4842 31.9564 11.7572 30.7219 14.0995 30.7219C16.3724 30.7219 17.5493 31.9988 19.5569 31.9988C23.0299 31.9488 26.0144 26.1067 26.8836 23.476C22.2261 21.2799 22.476 17.0455 22.476 16.9109V16.9109ZM18.4339 5.18057C20.3838 2.86527 20.2069 0.757663 20.1492 0C18.4262 0.0999961 16.434 1.17303 15.2994 2.49221C14.0495 3.90754 13.3149 5.65747 13.4726 7.63047C15.334 7.77277 17.034 6.81512 18.4339 5.18057V5.18057Z"/>
</svg>
