<svg viewBox="0 0 28 33" fill="none" xmlns="http://www.w3.org/2000/svg">
<path d="M14.672 0C14.464 0 14.251 0.011 14.031 0.027C8.39599 0.474 9.89099 6.438 9.80699 8.427C9.70299 9.88 9.40699 11.031 8.40699 12.454C7.22399 13.855 5.56799 16.121 4.78199 18.479C4.41299 19.588 4.23499 20.73 4.40199 21.803C4.33909 21.8496 4.28749 21.9098 4.25099 21.979C3.90699 22.339 3.65099 22.782 3.36999 23.099C3.10499 23.364 2.72499 23.454 2.30699 23.631C1.89099 23.812 1.42699 23.99 1.15599 24.542C1.03599 24.793 0.972987 25.063 0.978987 25.345C0.978987 25.605 1.01599 25.876 1.05199 26.058C1.13099 26.589 1.20799 27.027 1.10399 27.35C0.770987 28.255 0.734987 28.875 0.963987 29.329C1.19699 29.777 1.67699 29.954 2.21299 30.132C3.29699 30.397 4.75999 30.313 5.91699 30.928C7.14999 31.553 8.40599 31.824 9.40599 31.559C9.75092 31.4817 10.0743 31.3284 10.3526 31.1105C10.6309 30.8925 10.8572 30.6153 11.015 30.299C11.796 30.294 12.655 29.939 14.026 29.851C14.958 29.772 16.125 30.21 17.463 30.116C17.499 30.299 17.546 30.381 17.619 30.564V30.569C18.139 31.605 19.103 32.074 20.135 31.996C21.16 31.913 22.254 31.283 23.139 30.252C23.983 29.236 25.384 28.808 26.311 28.252C26.775 27.985 27.15 27.627 27.176 27.111C27.207 26.58 26.911 26.028 26.228 25.278V25.147L26.223 25.142C25.994 24.877 25.89 24.429 25.77 23.909C25.655 23.372 25.53 22.862 25.114 22.513C25.03 22.44 24.947 22.424 24.859 22.336C24.7851 22.2839 24.6982 22.2535 24.608 22.248C25.181 20.544 24.957 18.852 24.373 17.325C23.665 15.445 22.42 13.805 21.477 12.68C20.414 11.341 19.373 10.071 19.394 8.191C19.43 5.32 19.711 0.014 14.67 0.003L14.672 0ZM15.375 4.541H15.396C15.677 4.541 15.921 4.625 16.172 4.802C16.427 4.983 16.615 5.245 16.755 5.515C16.896 5.859 16.97 6.124 16.979 6.478C16.979 6.453 16.984 6.426 16.984 6.401V6.541C16.984 6.53 16.979 6.521 16.979 6.51L16.974 6.478C16.974 6.802 16.907 7.125 16.777 7.421C16.7152 7.58951 16.6172 7.74243 16.49 7.869C16.454 7.849 16.417 7.828 16.375 7.812C16.235 7.749 16.11 7.729 15.995 7.636C15.9004 7.59809 15.8027 7.56832 15.703 7.547C15.766 7.47 15.896 7.37 15.948 7.282C16.016 7.115 16.052 6.933 16.063 6.746V6.719C16.0658 6.53848 16.0374 6.35883 15.979 6.188C15.922 6.011 15.85 5.921 15.74 5.745C15.625 5.656 15.516 5.568 15.38 5.568H15.36C15.235 5.568 15.125 5.604 15.011 5.745C14.8859 5.86835 14.7928 6.02044 14.74 6.188C14.6673 6.35601 14.6266 6.53608 14.62 6.719V6.746C14.62 6.865 14.631 6.985 14.645 7.105C14.385 7.017 14.062 6.922 13.833 6.834C13.8205 6.74618 13.8135 6.65768 13.812 6.569V6.542C13.8019 6.18983 13.8698 5.83979 14.011 5.517C14.12 5.225 14.318 4.974 14.584 4.808C14.812 4.637 15.088 4.543 15.375 4.543V4.541ZM11.427 4.62H11.474C11.662 4.62 11.834 4.683 12.006 4.797C12.203 4.969 12.361 5.182 12.465 5.416C12.585 5.683 12.652 5.953 12.673 6.307V6.312C12.678 6.489 12.678 6.584 12.668 6.667V6.776L12.559 6.807C12.356 6.88 12.195 6.984 12.032 7.074C12.048 6.954 12.048 6.834 12.037 6.719V6.698C12.022 6.522 11.985 6.433 11.928 6.255C11.8853 6.11812 11.8082 5.99451 11.704 5.896C11.6385 5.83761 11.5526 5.80742 11.465 5.812H11.433C11.34 5.817 11.261 5.864 11.189 5.989C11.1008 6.0904 11.0448 6.2157 11.028 6.349C10.991 6.489 10.98 6.64 10.996 6.792V6.807C11.012 6.99 11.043 7.079 11.105 7.255C11.1452 7.39066 11.2208 7.51318 11.324 7.61C11.34 7.626 11.351 7.637 11.371 7.641C11.278 7.72 11.215 7.736 11.138 7.824C11.085 7.861 11.029 7.908 10.961 7.919C10.8223 7.75218 10.7001 7.57234 10.596 7.382C10.4684 7.10168 10.3977 6.79884 10.388 6.491C10.3678 6.19014 10.403 5.88813 10.492 5.6C10.571 5.34 10.696 5.095 10.872 4.887C11.044 4.71 11.216 4.622 11.429 4.622L11.427 4.62ZM13.255 6.896C13.698 6.896 14.23 6.979 14.875 7.427C15.266 7.694 15.574 7.787 16.282 8.047C16.626 8.23 16.823 8.407 16.922 8.584V8.407C16.9695 8.50359 16.9959 8.60917 16.9995 8.71674C17.0031 8.82432 16.9839 8.93143 16.943 9.031C16.776 9.448 16.255 9.891 15.522 10.156V10.161C15.167 10.338 14.855 10.604 14.49 10.781C14.121 10.958 13.703 11.172 13.141 11.136C12.9375 11.1449 12.7341 11.1147 12.542 11.047C12.3939 10.9684 12.2512 10.8798 12.115 10.782C11.855 10.605 11.631 10.339 11.298 10.162V10.157H11.293C10.756 9.829 10.47 9.474 10.376 9.209C10.288 8.85 10.371 8.585 10.637 8.408C10.933 8.231 11.141 8.048 11.277 7.96C11.417 7.861 11.47 7.824 11.512 7.788H11.517V7.783C11.741 7.512 12.094 7.158 12.637 6.98C12.818 6.933 13.028 6.897 13.256 6.897L13.255 6.896ZM16.984 9.749C17.464 11.64 18.584 14.385 19.303 15.713C19.683 16.426 20.443 17.926 20.771 19.745C20.979 19.74 21.208 19.77 21.454 19.833C22.318 17.604 20.73 15.208 20.006 14.541C19.709 14.276 19.694 14.098 19.839 14.098C20.626 14.806 21.656 16.193 22.031 17.77C22.203 18.483 22.246 19.245 22.063 19.999C22.151 20.035 22.24 20.082 22.334 20.087C23.709 20.802 24.219 21.338 23.974 22.139V22.082C23.897 22.078 23.813 22.082 23.735 22.082H23.714C23.918 21.458 23.47 20.978 22.293 20.447C21.074 19.916 20.1 19.999 19.933 21.067C19.9212 21.1273 19.9145 21.1885 19.913 21.25C19.818 21.281 19.725 21.317 19.632 21.333C19.059 21.693 18.751 22.229 18.575 22.917C18.403 23.63 18.351 24.458 18.304 25.412C18.272 25.86 18.075 26.531 17.876 27.213C15.876 28.645 13.1 29.265 10.747 27.661C10.595 27.401 10.418 27.161 10.21 26.948C10.1101 26.7825 9.9857 26.6331 9.84099 26.505C10.085 26.505 10.294 26.464 10.461 26.416C10.6517 26.3241 10.8017 26.1649 10.882 25.969C11.023 25.614 10.882 25.041 10.418 24.416C9.96099 23.797 9.17899 23.093 8.03799 22.391C7.19499 21.86 6.72099 21.23 6.50199 20.531C6.28299 19.818 6.31399 19.083 6.48099 18.339C6.80899 16.912 7.64799 15.522 8.18499 14.651C8.32499 14.568 8.23199 14.834 7.63799 15.954C7.11099 16.954 6.11699 19.282 7.47499 21.089C7.52719 19.7693 7.82034 18.4702 8.33999 17.256C9.08899 15.553 10.663 12.585 10.788 10.231C10.851 10.283 11.075 10.414 11.173 10.502C11.46 10.679 11.678 10.945 11.96 11.122C12.241 11.387 12.595 11.57 13.127 11.57C13.179 11.575 13.226 11.575 13.272 11.575C13.819 11.575 14.247 11.398 14.6 11.22C14.985 11.037 15.299 10.772 15.589 10.684H15.594C16.214 10.507 16.709 10.147 16.985 9.751L16.984 9.749ZM19.901 21.693C19.953 22.494 20.36 23.354 21.078 23.53C21.859 23.707 22.989 23.087 23.463 22.51L23.744 22.499C24.165 22.488 24.515 22.51 24.873 22.854L24.878 22.859C25.154 23.124 25.285 23.567 25.399 24.026C25.514 24.562 25.602 25.067 25.946 25.447C26.591 26.15 26.805 26.655 26.795 26.968C26.774 27.316 26.544 27.493 26.128 27.759C25.289 28.296 23.8 28.707 22.852 29.854C22.028 30.838 21.024 31.374 20.137 31.442C19.252 31.515 18.486 31.177 18.038 30.245L18.033 30.24C17.752 29.708 17.872 28.875 18.106 27.989C18.341 27.098 18.679 26.193 18.726 25.458C18.773 24.505 18.825 23.677 18.981 23.035C19.142 22.415 19.393 21.972 19.841 21.728L19.898 21.696L19.901 21.693ZM5.47899 21.76H5.49499C5.56799 21.76 5.63599 21.765 5.70299 21.781C6.20299 21.854 6.64599 22.224 7.06799 22.781L8.28099 25L8.28599 25.005C8.60899 25.713 9.29099 26.421 9.86899 27.188C10.448 27.984 10.896 28.697 10.844 29.281V29.292C10.765 30.281 10.203 30.817 9.34399 31.016C8.48399 31.193 7.31699 31.016 6.15099 30.396C4.85999 29.683 3.32299 29.771 2.33899 29.593C1.84999 29.505 1.52699 29.322 1.37499 29.057C1.22999 28.792 1.22399 28.254 1.54199 27.416V27.412C1.69799 26.964 1.58499 26.407 1.50599 25.917C1.43299 25.385 1.39699 24.973 1.56299 24.666C1.77599 24.218 2.09399 24.135 2.48399 23.953C2.87499 23.776 3.33899 23.688 3.70299 23.328H3.70799V23.323C4.04699 22.97 4.30299 22.527 4.59899 22.208C4.84999 21.937 5.10399 21.76 5.47899 21.76V21.76ZM15.027 9.661C14.448 9.926 13.766 10.374 13.042 10.374C12.318 10.374 11.75 10.021 11.339 9.754C11.131 9.573 10.964 9.395 10.839 9.306C10.62 9.13 10.646 8.859 10.74 8.859C10.885 8.879 10.912 9.04 11.005 9.13C11.136 9.218 11.292 9.395 11.484 9.573C11.875 9.838 12.396 10.197 13.041 10.197C13.688 10.197 14.448 9.838 14.906 9.573C15.166 9.396 15.499 9.13 15.77 8.953C15.978 8.77 15.969 8.593 16.139 8.593C16.311 8.614 16.187 8.77 15.947 9.036C15.702 9.219 15.327 9.484 15.026 9.661H15.027ZM13.584 7.547V7.522C13.579 7.495 13.599 7.465 13.625 7.454C13.718 7.397 13.864 7.417 13.969 7.459C14.052 7.459 14.182 7.547 14.172 7.64C14.161 7.703 14.057 7.729 13.989 7.729C13.917 7.729 13.864 7.672 13.802 7.636C13.734 7.615 13.603 7.625 13.583 7.547H13.584ZM12.849 7.547C12.822 7.626 12.697 7.615 12.63 7.636C12.567 7.672 12.515 7.729 12.442 7.729C12.374 7.729 12.265 7.702 12.259 7.636C12.25 7.547 12.374 7.459 12.458 7.459C12.567 7.416 12.702 7.396 12.806 7.454C12.827 7.465 12.854 7.495 12.843 7.522V7.547H12.849Z"/>
</svg>
