<svg viewBox="0 0 37 32" fill="none" xmlns="http://www.w3.org/2000/svg">
<path d="M36.602 18.2857V29.7143C36.602 30.3333 36.3758 30.869 35.9234 31.3214C35.4711 31.7738 34.9353 32 34.3163 32H2.31629C1.69725 32 1.16153 31.7738 0.70915 31.3214C0.256769 30.869 0.0305786 30.3333 0.0305786 29.7143V18.2857C0.0305786 17.6667 0.256769 17.131 0.70915 16.6786C1.16153 16.2262 1.69725 16 2.31629 16C1.69725 16 1.16153 15.7798 0.70915 15.3393C0.256769 14.8988 0.0305786 14.3571 0.0305786 13.7143V2.28571C0.0305786 1.66667 0.256769 1.13095 0.70915 0.678571C1.16153 0.22619 1.69725 0 2.31629 0H34.3163C34.9353 0 35.4711 0.22619 35.9234 0.678571C36.3758 1.13095 36.602 1.66667 36.602 2.28571V13.7143C36.602 14.3571 36.3758 14.8988 35.9234 15.3393C35.4711 15.7798 34.9353 16 34.3163 16C34.9592 16 35.5008 16.2202 35.9413 16.6607C36.3818 17.1012 36.602 17.6429 36.602 18.2857ZM30.8877 27.4286C31.1972 27.4286 31.4651 27.3155 31.6913 27.0893C31.9175 26.8631 32.0306 26.5952 32.0306 26.2857C32.0306 25.9762 31.9175 25.7083 31.6913 25.4821C31.4651 25.256 31.1972 25.1429 30.8877 25.1429C30.5782 25.1429 30.3103 25.256 30.0842 25.4821C29.858 25.7083 29.7449 25.9762 29.7449 26.2857C29.7449 26.5952 29.858 26.8631 30.0842 27.0893C30.3103 27.3155 30.5782 27.4286 30.8877 27.4286ZM9.17344 23.4286C9.17344 23.2619 9.11986 23.125 9.01272 23.0179C8.90558 22.9107 8.76867 22.8571 8.60201 22.8571H6.88772V21.1429C6.88772 20.9762 6.83415 20.8393 6.72701 20.7321C6.61986 20.625 6.48296 20.5714 6.31629 20.5714H5.17344C5.00677 20.5714 4.86986 20.625 4.76272 20.7321C4.65558 20.8393 4.60201 20.9762 4.60201 21.1429V22.8571H2.88772C2.72105 22.8571 2.58415 22.9107 2.47701 23.0179C2.36986 23.125 2.31629 23.2619 2.31629 23.4286V24.5714C2.31629 24.7381 2.36986 24.875 2.47701 24.9821C2.58415 25.0893 2.72105 25.1429 2.88772 25.1429H4.60201V26.8571C4.60201 27.0238 4.65558 27.1607 4.76272 27.2679C4.86986 27.375 5.00677 27.4286 5.17344 27.4286H6.31629C6.48296 27.4286 6.61986 27.375 6.72701 27.2679C6.83415 27.1607 6.88772 27.0238 6.88772 26.8571V25.1429H8.60201C8.76867 25.1429 8.90558 25.0893 9.01272 24.9821C9.11986 24.875 9.17344 24.7381 9.17344 24.5714V23.4286ZM25.1734 3.42857C25.1734 3.11905 25.0603 2.85119 24.8342 2.625C24.608 2.39881 24.3401 2.28571 24.0306 2.28571H12.602C12.2925 2.28571 12.0246 2.39881 11.7984 2.625C11.5722 2.85119 11.4592 3.11905 11.4592 3.42857V12.5714C11.4592 12.881 11.5722 13.1488 11.7984 13.375C12.0246 13.6012 12.2925 13.7143 12.602 13.7143H24.0306C24.3401 13.7143 24.608 13.6012 24.8342 13.375C25.0603 13.1488 25.1734 12.881 25.1734 12.5714V3.42857ZM25.1734 19.4286C25.1734 19.119 25.0603 18.8512 24.8342 18.625C24.608 18.3988 24.3401 18.2857 24.0306 18.2857H12.602C12.2925 18.2857 12.0246 18.3988 11.7984 18.625C11.5722 18.8512 11.4592 19.119 11.4592 19.4286V28.5714C11.4592 28.881 11.5722 29.1488 11.7984 29.375C12.0246 29.6012 12.2925 29.7143 12.602 29.7143H24.0306C24.3401 29.7143 24.608 29.6012 24.8342 29.375C25.0603 29.1488 25.1734 28.881 25.1734 28.5714V19.4286ZM28.602 22.8571C28.2925 22.8571 28.0246 22.9702 27.7984 23.1964C27.5722 23.4226 27.4592 23.6905 27.4592 24C27.4592 24.3095 27.5722 24.5774 27.7984 24.8036C28.0246 25.0298 28.2925 25.1429 28.602 25.1429C28.9115 25.1429 29.1794 25.0298 29.4056 24.8036C29.6318 24.5774 29.7449 24.3095 29.7449 24C29.7449 23.6905 29.6318 23.4226 29.4056 23.1964C29.1794 22.9702 28.9115 22.8571 28.602 22.8571ZM30.8877 20.5714C30.5782 20.5714 30.3103 20.6845 30.0842 20.9107C29.858 21.1369 29.7449 21.4048 29.7449 21.7143C29.7449 22.0238 29.858 22.2917 30.0842 22.5179C30.3103 22.744 30.5782 22.8571 30.8877 22.8571C31.1972 22.8571 31.4651 22.744 31.6913 22.5179C31.9175 22.2917 32.0306 22.0238 32.0306 21.7143C32.0306 21.4048 31.9175 21.1369 31.6913 20.9107C31.4651 20.6845 31.1972 20.5714 30.8877 20.5714ZM33.1734 22.8571C32.8639 22.8571 32.5961 22.9702 32.3699 23.1964C32.1437 23.4226 32.0306 23.6905 32.0306 24C32.0306 24.3095 32.1437 24.5774 32.3699 24.8036C32.5961 25.0298 32.8639 25.1429 33.1734 25.1429C33.483 25.1429 33.7508 25.0298 33.977 24.8036C34.2032 24.5774 34.3163 24.3095 34.3163 24C34.3163 23.6905 34.2032 23.4226 33.977 23.1964C33.7508 22.9702 33.483 22.8571 33.1734 22.8571Z"/>
</svg>
