<svg viewBox="0 0 41 32" fill="none" xmlns="http://www.w3.org/2000/svg">
<path d="M15.2845 0.00127593V29.855L21.9441 32V6.95941C21.9441 5.78164 22.4634 4.99817 23.3005 5.26996C24.3774 5.58258 24.5905 6.65954 24.5905 7.83603V17.8311C28.7452 19.8587 32.0131 17.8247 32.0131 12.468C32.0131 6.95941 30.0991 4.512 24.4642 2.55204C22.2375 1.78643 18.116 0.530824 15.2922 0L15.2845 0.00127593ZM23.2073 27.6347L33.9208 23.7595C35.1355 23.3218 35.3231 22.6978 34.3393 22.3712C33.3427 22.0458 31.5538 22.1313 30.3237 22.5766L23.1729 25.1286V21.0671L23.5774 20.928C23.5774 20.928 25.6241 20.2121 28.5347 19.8778C31.4198 19.5729 34.976 19.9301 37.7871 21.0007C40.9312 22.0254 41.263 23.5068 40.4655 24.5315C39.6743 25.5472 37.708 26.2924 37.708 26.2924L23.1729 31.5751V27.6666L23.2073 27.6347ZM3.07685 27.2302C-0.160414 26.3 -0.691238 24.3924 0.776183 23.2746C2.13897 22.2844 4.44474 21.4882 4.44474 21.4882L14.0008 18.0646V21.9986L7.15628 24.5047C5.95299 24.964 5.75393 25.5816 6.75178 25.907C7.74835 26.2401 9.53477 26.1673 10.733 25.708L14.0289 24.5047V28.0329C13.8299 28.0801 13.5963 28.1056 13.3641 28.1592C10.0682 28.7194 6.57186 28.4922 3.09599 27.3425L3.07685 27.2302Z"/>
</svg>
