<svg viewBox="0 0 25 25" fill="none" xmlns="http://www.w3.org/2000/svg">
<path d="M24.925 23.2031L16.8094 15.0875C18.0688 13.4594 18.75 11.4688 18.75 9.375C18.75 6.86875 17.7719 4.51875 16.0031 2.74687C14.2344 0.975 11.8781 0 9.375 0C6.87188 0 4.51562 0.978125 2.74687 2.74687C0.975 4.51562 0 6.86875 0 9.375C0 11.8781 0.978125 14.2344 2.74687 16.0031C4.51562 17.775 6.86875 18.75 9.375 18.75C11.4688 18.75 13.4563 18.0688 15.0844 16.8125L23.2 24.925C23.2238 24.9488 23.2521 24.9677 23.2832 24.9806C23.3143 24.9935 23.3476 25.0001 23.3813 25.0001C23.4149 25.0001 23.4482 24.9935 23.4793 24.9806C23.5104 24.9677 23.5387 24.9488 23.5625 24.925L24.925 23.5656C24.9488 23.5418 24.9677 23.5136 24.9806 23.4825C24.9935 23.4514 25.0001 23.418 25.0001 23.3844C25.0001 23.3507 24.9935 23.3174 24.9806 23.2863C24.9677 23.2552 24.9488 23.2269 24.925 23.2031V23.2031ZM14.325 14.325C13 15.6469 11.2437 16.375 9.375 16.375C7.50625 16.375 5.75 15.6469 4.425 14.325C3.10313 13 2.375 11.2437 2.375 9.375C2.375 7.50625 3.10313 5.74688 4.425 4.425C5.75 3.10313 7.50625 2.375 9.375 2.375C11.2437 2.375 13.0031 3.1 14.325 4.425C15.6469 5.75 16.375 7.50625 16.375 9.375C16.375 11.2437 15.6469 13.0031 14.325 14.325Z"/>
</svg>
