<svg viewBox="0 0 35 32" fill="none" xmlns="http://www.w3.org/2000/svg">
<path d="M33.4266 11.2681L23.381 9.80817L18.8904 0.704271C18.7678 0.455012 18.566 0.25323 18.3167 0.130579C17.6916 -0.178028 16.9319 0.0791446 16.6194 0.704271L12.1288 9.80817L2.08323 11.2681C1.80627 11.3077 1.55306 11.4382 1.35919 11.6361C1.12481 11.877 0.99566 12.2011 1.00011 12.5371C1.00456 12.8732 1.14225 13.1938 1.38293 13.4284L8.65101 20.5144L6.93389 30.5204C6.89362 30.7532 6.91938 30.9926 7.00824 31.2114C7.0971 31.4303 7.24551 31.6199 7.43663 31.7587C7.62776 31.8975 7.85396 31.98 8.08958 31.9968C8.3252 32.0136 8.56081 31.964 8.7697 31.8538L17.7549 27.1297L26.7401 31.8538C26.9854 31.9843 27.2703 32.0278 27.5433 31.9804C28.2317 31.8617 28.6946 31.2088 28.5759 30.5204L26.8588 20.5144L34.1269 13.4284C34.3247 13.2345 34.4553 12.9813 34.4948 12.7043C34.6017 12.0119 34.119 11.371 33.4266 11.2681ZM23.8004 19.5174L25.2287 27.8379L17.7549 23.9131L10.2811 27.8419L11.7094 19.5214L5.66385 13.6262L14.02 12.4115L17.7549 4.84276L21.4898 12.4115L29.8459 13.6262L23.8004 19.5174Z"/>
<mask id="mask0" mask-type="alpha" maskUnits="userSpaceOnUse" x="0" y="0" width="1" height="32">
<rect width="1" height="32" fill="black"/>
</mask>
<g mask="url(#mask0)">
<path d="M33.4266 11.2681L23.381 9.80817L18.8904 0.704271C18.7678 0.455012 18.566 0.25323 18.3167 0.130579C17.6916 -0.178028 16.9319 0.0791446 16.6194 0.704271L12.1288 9.80817L2.08323 11.2681C1.80627 11.3077 1.55306 11.4382 1.35919 11.6361C1.12481 11.877 0.99566 12.2011 1.00011 12.5371C1.00456 12.8732 1.14225 13.1938 1.38293 13.4284L8.65101 20.5144L6.93389 30.5204C6.89362 30.7532 6.91938 30.9926 7.00824 31.2114C7.0971 31.4303 7.24551 31.6199 7.43663 31.7587C7.62776 31.8975 7.85396 31.98 8.08958 31.9968C8.3252 32.0136 8.56081 31.964 8.7697 31.8538L17.7549 27.1297L26.7401 31.8538C26.9854 31.9843 27.2703 32.0278 27.5433 31.9804C28.2317 31.8617 28.6946 31.2088 28.5759 30.5204L26.8588 20.5144L34.1269 13.4284C34.3247 13.2345 34.4553 12.9813 34.4948 12.7043C34.6017 12.0119 34.119 11.371 33.4266 11.2681V11.2681Z"/>
</g>
</svg>
