<svg viewBox="0 0 34 32" fill="none" xmlns="http://www.w3.org/2000/svg">
<path d="M32.4266 11.2681L22.381 9.80817L17.8904 0.704271C17.7678 0.455012 17.566 0.25323 17.3167 0.130579C16.6916 -0.178028 15.9319 0.0791446 15.6194 0.704271L11.1288 9.80817L1.08323 11.2681C0.806272 11.3077 0.553056 11.4382 0.359188 11.6361C0.124812 11.877 -0.00433991 12.2011 0.000111359 12.5371C0.00456263 12.8732 0.142253 13.1938 0.382927 13.4284L7.65101 20.5144L5.93389 30.5204C5.89362 30.7532 5.91938 30.9926 6.00824 31.2114C6.0971 31.4303 6.24551 31.6199 6.43663 31.7587C6.62776 31.8975 6.85396 31.98 7.08958 31.9968C7.3252 32.0136 7.56081 31.964 7.7697 31.8538L16.7549 27.1297L25.7401 31.8538C25.9854 31.9843 26.2703 32.0278 26.5433 31.9804C27.2317 31.8617 27.6946 31.2088 27.5759 30.5204L25.8588 20.5144L33.1269 13.4284C33.3247 13.2345 33.4553 12.9813 33.4948 12.7043C33.6017 12.0119 33.119 11.371 32.4266 11.2681Z"/>
</svg>
