<svg viewBox="0 0 32 32" fill="none" xmlns="http://www.w3.org/2000/svg">
<path d="M22.976 19.2C23.104 18.144 23.2 17.088 23.2 16C23.2 14.912 23.104 13.856 22.976 12.8H28.384C28.64 13.824 28.8 14.896 28.8 16C28.8 17.104 28.64 18.176 28.384 19.2H22.976ZM20.144 28.096C21.104 26.32 21.84 24.4 22.352 22.4H27.072C25.5219 25.0692 23.0626 27.0912 20.144 28.096V28.096ZM19.744 19.2H12.256C12.096 18.144 12 17.088 12 16C12 14.912 12.096 13.84 12.256 12.8H19.744C19.888 13.84 20 14.912 20 16C20 17.088 19.888 18.144 19.744 19.2ZM16 28.736C14.672 26.816 13.6 24.688 12.944 22.4H19.056C18.4 24.688 17.328 26.816 16 28.736ZM9.6 9.6H4.928C6.46217 6.92354 8.91967 4.89838 11.84 3.904C10.88 5.68 10.16 7.6 9.6 9.6ZM4.928 22.4H9.6C10.16 24.4 10.88 26.32 11.84 28.096C8.9258 27.0907 6.47175 25.0684 4.928 22.4V22.4ZM3.616 19.2C3.36 18.176 3.2 17.104 3.2 16C3.2 14.896 3.36 13.824 3.616 12.8H9.024C8.896 13.856 8.8 14.912 8.8 16C8.8 17.088 8.896 18.144 9.024 19.2H3.616ZM16 3.248C17.328 5.168 18.4 7.312 19.056 9.6H12.944C13.6 7.312 14.672 5.168 16 3.248V3.248ZM27.072 9.6H22.352C21.8512 7.61833 21.1097 5.70543 20.144 3.904C23.088 4.912 25.536 6.944 27.072 9.6ZM16 0C7.152 0 0 7.2 0 16C0 20.2435 1.68571 24.3131 4.68629 27.3137C6.17203 28.7994 7.93586 29.978 9.87706 30.7821C11.8183 31.5861 13.8989 32 16 32C20.2435 32 24.3131 30.3143 27.3137 27.3137C30.3143 24.3131 32 20.2435 32 16C32 13.8989 31.5861 11.8183 30.7821 9.87706C29.978 7.93586 28.7994 6.17203 27.3137 4.68629C25.828 3.20055 24.0641 2.022 22.1229 1.21793C20.1817 0.413852 18.1012 0 16 0V0Z"/>
</svg>
