<svg viewBox="0 0 32 32" fill="none" xmlns="http://www.w3.org/2000/svg">
<path d="M5.47002 28.041C8.38089 30.5994 12.1256 32.0072 16.001 32C20.037 32 23.72 30.511 26.537 28.041C29.037 25.494 20.782 16.432 16.001 12.822C11.225 16.431 2.96502 25.494 5.47002 28.041V28.041ZM20.35 8.839C23.683 12.787 30.329 22.588 28.454 26.052C30.7549 23.2096 32.0074 19.6619 32.001 16.005C32.001 11.552 30.184 7.521 27.241 4.625C27.241 4.625 27.204 4.593 27.132 4.568C27.0112 4.5264 26.8838 4.50709 26.756 4.511C25.971 4.511 24.111 5.088 20.351 8.839H20.35ZM4.87002 4.568C4.79802 4.593 4.76102 4.625 4.75502 4.625C3.24595 6.11068 2.04818 7.88228 1.23174 9.83625C0.415297 11.7902 -0.00343469 13.8873 2.12185e-05 16.005C2.12185e-05 19.812 1.32802 23.302 3.54702 26.046C1.68302 22.578 8.31802 12.781 11.656 8.838C7.89602 5.082 6.03102 4.51 5.24502 4.51C5.11663 4.50394 4.98843 4.52542 4.86902 4.573L4.87002 4.568ZM16.001 4.735C16.001 4.735 12.074 2.438 9.00602 2.328C7.80302 2.287 7.06902 2.719 6.97902 2.781C9.83902 0.86 12.88 0 15.979 0H16C19.115 0 22.14 0.86 25.021 2.781C24.932 2.718 24.202 2.286 22.994 2.328C19.926 2.437 15.999 4.729 15.999 4.729L16.001 4.735Z" />
</svg>
